<svg xmlns="http://www.w3.org/2000/svg" version="1.1" xmlns:xlink="http://www.w3.org/1999/xlink" xmlns:svgjs="http://svgjs.dev/svgjs" width="1000" height="1125" viewBox="0 0 1000 1125"><g transform="matrix(1,0,0,1,0.0005762637636053114,0)"><svg viewBox="0 0 320 360" data-background-color="#ffffff" preserveAspectRatio="xMidYMid meet" height="1125" width="1000" xmlns="http://www.w3.org/2000/svg" xmlns:xlink="http://www.w3.org/1999/xlink"><g id="tight-bounds" transform="matrix(1,0,0,1,0.00018440440442191175,0)"><svg viewBox="0 0 320 360" height="360" width="320"><g><svg></svg></g><g><svg viewBox="0 0 320 360" height="360" width="320"><g><path xmlns="http://www.w3.org/2000/svg" d="M294.684 112.125c-8.775-10.699-25.381-16.201-43-22.006-7.56-2.498-15.357-5.097-22.985-8.235-7.695-3.173-15.256-7.257-22.613-11.172-14.952-8.033-30.41-16.336-46.105-16.336-15.661 0-31.119 8.303-46.071 16.336-7.358 3.949-14.952 8.033-22.648 11.205-7.594 3.139-15.425 5.704-22.985 8.236-17.618 5.839-34.224 11.341-42.999 22.006-11.712 14.277-11.442 35.439-11.172 57.817 0.034 3.375 0.068 6.717 0.067 10.024 0 3.308-0.034 6.649-0.101 10.024-0.27 22.411-0.54 43.54 11.172 57.851 8.775 10.666 25.381 16.167 42.966 22.006 7.56 2.498 15.357 5.097 23.019 8.235 7.695 3.173 15.256 7.223 22.579 11.172 14.986 8.067 30.444 16.37 46.105 16.37 15.695 0 31.153-8.303 46.105-16.336 7.358-3.949 14.918-8.033 22.614-11.172 7.594-3.139 15.357-5.704 22.884-8.202 17.72-5.873 34.326-11.374 43.101-22.039 11.712-14.277 11.442-35.439 11.171-57.817-0.034-3.409-0.101-6.75-0.101-10.058 0-3.308 0.034-6.649 0.101-9.991 0.371-22.479 0.641-43.641-11.104-57.918zM305.552 103.215c-15.728-19.171-45.801-23.727-71.486-34.326-22.985-9.45-46.375-28.588-74.051-28.587-27.676 0-51.066 19.137-74.052 28.587-25.719 10.598-55.758 15.155-71.486 34.326-17.078 20.791-14.311 50.121-14.311 76.785 0 26.63-2.768 55.994 14.277 76.785 15.728 19.171 45.801 23.727 71.487 34.326 22.985 9.484 46.375 28.588 74.051 28.587 27.676 0 51.066-19.103 74.051-28.587 25.719-10.598 55.758-15.155 71.486-34.326 17.045-20.791 14.277-50.121 14.277-76.785 0.068-26.664 2.835-55.994-14.243-76.785zM309.872 189.923c0.304 23.221 0.574 45.059-12.083 60.483-9.518 11.577-26.664 17.281-44.822 23.289-7.56 2.498-15.29 5.063-22.715 8.134-7.493 3.071-14.952 7.088-22.175 10.969-15.458 8.303-31.355 16.842-48.062 16.842-16.707 0-32.604-8.539-47.995-16.808-7.257-3.915-14.75-7.932-22.243-11.003-7.527-3.105-15.256-5.67-22.748-8.134-18.192-6.008-35.338-11.712-44.823-23.289-12.623-15.391-12.353-37.262-12.083-60.415 0.034-3.375 0.101-6.683 0.101-9.991 0-3.308-0.034-6.615-0.067-9.991-0.304-23.154-0.574-45.025 12.083-60.415 9.518-11.577 26.664-17.247 44.822-23.289 7.527-2.498 15.256-5.063 22.749-8.134 7.493-3.105 14.986-7.122 22.242-11.003 15.391-8.269 31.322-16.842 47.995-16.842 16.673 0 32.604 8.539 47.995 16.808 7.257 3.915 14.75 7.932 22.243 11.003 7.493 3.105 15.256 5.637 22.715 8.134 18.158 6.008 35.338 11.712 44.822 23.289 12.657 15.425 12.387 37.262 12.083 60.416-0.034 3.409-0.101 6.717-0.101 9.99 0 3.308 0.034 6.615 0.067 9.957z" fill="#ea9937" fill-rule="nonzero" stroke="none" stroke-width="1" stroke-linecap="butt" stroke-linejoin="miter" stroke-miterlimit="10" stroke-dasharray="" stroke-dashoffset="0" font-family="none" font-weight="none" font-size="none" text-anchor="none" style="mix-blend-mode: normal" data-fill-palette-color="tertiary"></path></g><g transform="matrix(1,0,0,1,64,116.15781119132595)"><svg viewBox="0 0 192 127.68437761734812" height="127.68437761734812" width="192"><g><svg viewBox="0 0 192 127.68437761734812" height="127.68437761734812" width="192"><g><svg viewBox="0 0 192 127.68437761734812" height="127.68437761734812" width="192"><g transform="matrix(1,0,0,1,0,95.76388970228147)"><svg viewBox="0 0 192 31.92048791506664" height="31.92048791506664" width="192"><g><svg viewBox="0 0 192 31.92048791506664" height="31.92048791506664" width="192"><g><svg viewBox="0 0 192 31.92048791506664" height="31.92048791506664" width="192"><g transform="matrix(1,0,0,1,0,0)"><svg width="192" viewBox="2.1500000953674316 -36.29999923706055 221.3300018310547 36.79999923706055" height="31.92048791506664" data-palette-color="#ffffff"><path d="M40.15-3.4L42.35-1.75Q41.95-0.9 40.95-0.33 39.95 0.25 38.7 0.25L38.7 0.25Q36.7 0.25 35.4-1 34.1-2.25 34.1-4.25L34.1-4.25 34.1-17.5Q33.95-20.2 32.75-21.48 31.55-22.75 29.25-22.75L29.25-22.75Q24.75-22.75 22.15-17.8L22.15-17.8 22.15 0 19.15 0 19.15-16.8Q19.15-19.6 17.95-21.18 16.75-22.75 14.35-22.75L14.35-22.75Q12.05-22.75 10.08-21.35 8.1-19.95 7.25-17.9L7.25-17.9 7.25 0 4.25 0 4.25-17.5Q4.25-21.45 2.15-23.3L2.15-23.3 4.15-25.3Q5-24.7 5.8-23.65 6.6-22.6 7-21.3L7-21.3Q8.35-23.3 10.28-24.38 12.2-25.45 14.6-25.45L14.6-25.45Q17.05-25.45 18.82-24.3 20.6-23.15 21.5-20.9L21.5-20.9Q22.9-23.1 24.88-24.28 26.85-25.45 29.3-25.45L29.3-25.45Q32.85-25.45 34.98-23.28 37.1-21.1 37.1-17.55L37.1-17.55 37.1-4.2Q37.1-3.5 37.58-3.03 38.05-2.55 38.7-2.55L38.7-2.55Q39.7-2.55 40.15-3.4L40.15-3.4ZM49.75-4.2Q49.75-3.5 50.22-3.03 50.7-2.55 51.35-2.55L51.35-2.55Q52.35-2.55 52.8-3.4L52.8-3.4 55-1.75Q54.6-0.9 53.6-0.33 52.6 0.25 51.35 0.25L51.35 0.25Q49.35 0.25 48.05-1 46.75-2.25 46.75-4.25L46.75-4.25 46.75-25 49.75-25 49.75-4.2ZM48.1-28.25Q47.25-28.25 46.62-28.88 46-29.5 46-30.35L46-30.35Q46-31.25 46.62-31.88 47.25-32.5 48.1-32.5L48.1-32.5Q49-32.5 49.62-31.88 50.25-31.25 50.25-30.35L50.25-30.35Q50.25-29.5 49.62-28.88 49-28.25 48.1-28.25L48.1-28.25ZM69.3-25.5Q70.8-25.5 72.3-25.05L72.3-25.05 72.3-22.25Q70.84-22.6 69.4-22.6L69.4-22.6Q66.84-22.6 65.25-21.35L65.25-21.35Q63.65-20.1 62.4-17.8L62.4-17.8 62.4 0 59.4 0 59.4-17.5Q59.4-21.45 57.3-23.3L57.3-23.3 59.3-25.3Q60.2-24.75 61-23.65 61.8-22.55 62.15-21.2L62.15-21.2Q63.55-23.5 64.95-24.35L64.95-24.35Q66.7-25.5 69.3-25.5L69.3-25.5ZM86.99 0.5Q83.44 0.5 80.67-1.15 77.89-2.8 76.34-5.75 74.79-8.7 74.79-12.45L74.79-12.45Q74.79-16.2 76.37-19.18 77.94-22.15 80.72-23.83 83.49-25.5 87.04-25.5L87.04-25.5Q90.54-25.5 93.32-23.83 96.09-22.15 97.67-19.2 99.24-16.25 99.24-12.5L99.24-12.5Q99.24-8.75 97.67-5.8 96.09-2.85 93.32-1.18 90.54 0.5 86.99 0.5L86.99 0.5ZM87.04-2.2Q91.19-2.2 93.72-5.05 96.24-7.9 96.24-12.5L96.24-12.5Q96.24-15.55 95.09-17.88 93.94-20.2 91.84-21.5 89.74-22.8 87.04-22.8L87.04-22.8Q84.29-22.8 82.19-21.5 80.09-20.2 78.94-17.82 77.79-15.45 77.79-12.45L77.79-12.45Q77.79-9.45 78.94-7.13 80.09-4.8 82.19-3.5 84.29-2.2 87.04-2.2L87.04-2.2ZM127.79-3.4L129.99-1.75Q129.59-0.9 128.59-0.33 127.59 0.25 126.34 0.25L126.34 0.25Q124.34 0.25 123.04-1 121.74-2.25 121.74-4.25L121.74-4.25 121.74-16.8Q121.74-22.8 116.34-22.8L116.34-22.8Q113.79-22.8 111.99-21.53 110.19-20.25 108.29-17.7L108.29-17.7 108.29 0 105.29 0 105.29-17.55Q105.29-21.5 103.19-23.35L103.19-23.35 105.19-25.35Q106.09-24.8 106.92-23.65 107.74-22.5 108.09-21.15L108.09-21.15Q109.79-23.45 111.87-24.48 113.94-25.5 116.59-25.5L116.59-25.5Q120.24-25.5 122.39-23.63 124.54-21.75 124.74-18.1L124.74-18.1 124.74-4.2Q124.74-3.5 125.22-3.03 125.69-2.55 126.34-2.55L126.34-2.55Q127.34-2.55 127.79-3.4L127.79-3.4ZM137.39-4.2Q137.39-3.5 137.86-3.03 138.34-2.55 138.99-2.55L138.99-2.55Q139.99-2.55 140.44-3.4L140.44-3.4 142.64-1.75Q142.24-0.9 141.24-0.33 140.24 0.25 138.99 0.25L138.99 0.25Q136.99 0.25 135.69-1 134.39-2.25 134.39-4.25L134.39-4.25 134.39-25 137.39-25 137.39-4.2ZM135.74-28.25Q134.89-28.25 134.26-28.88 133.64-29.5 133.64-30.35L133.64-30.35Q133.64-31.25 134.26-31.88 134.89-32.5 135.74-32.5L135.74-32.5Q136.64-32.5 137.26-31.88 137.89-31.25 137.89-30.35L137.89-30.35Q137.89-29.5 137.26-28.88 136.64-28.25 135.74-28.25L135.74-28.25ZM155.79 0.5Q153.29 0.5 150.94 0.2L150.94 0.2Q148.49-0.1 147.24-0.5L147.24-0.5 147.24-36.3 150.24-36.3 150.24-21.65Q151.49-23.55 153.51-24.48 155.54-25.4 157.84-25.4L157.84-25.4Q160.99-25.4 163.41-23.75 165.84-22.1 167.16-19.15 168.49-16.2 168.49-12.45L168.49-12.45Q168.49-6.8 165.36-3.15 162.24 0.5 155.79 0.5L155.79 0.5ZM155.74-2.2Q160.99-2.2 163.24-5.03 165.49-7.85 165.49-12.4L165.49-12.4Q165.49-15.65 164.46-17.98 163.44-20.3 161.66-21.5 159.89-22.7 157.69-22.7L157.69-22.7Q155.14-22.7 152.94-21.15L152.94-21.15Q150.49-19.45 150.24-16.4L150.24-16.4 150.24-2.65 152.89-2.35Q154.19-2.2 155.74-2.2L155.74-2.2ZM185.18 0.5Q181.63 0.5 178.86-1.15 176.08-2.8 174.53-5.75 172.98-8.7 172.98-12.45L172.98-12.45Q172.98-16.2 174.56-19.18 176.13-22.15 178.91-23.83 181.68-25.5 185.23-25.5L185.23-25.5Q188.73-25.5 191.51-23.83 194.28-22.15 195.86-19.2 197.43-16.25 197.43-12.5L197.43-12.5Q197.43-8.75 195.86-5.8 194.28-2.85 191.51-1.18 188.73 0.5 185.18 0.5L185.18 0.5ZM185.23-2.2Q189.38-2.2 191.91-5.05 194.43-7.9 194.43-12.5L194.43-12.5Q194.43-15.55 193.28-17.88 192.13-20.2 190.03-21.5 187.93-22.8 185.23-22.8L185.23-22.8Q182.48-22.8 180.38-21.5 178.28-20.2 177.13-17.82 175.98-15.45 175.98-12.45L175.98-12.45Q175.98-9.45 177.13-7.13 178.28-4.8 180.38-3.5 182.48-2.2 185.23-2.2L185.23-2.2ZM204.33-25L210.78-14.7 217.03-25 220.33-25 212.68-12.6 218.48-3.15Q218.98-2.35 219.88-2.35L219.88-2.35Q220.68-2.35 221.08-3L221.08-3 223.48-1.45Q222.83-0.55 221.88-0.03 220.93 0.5 219.88 0.5L219.88 0.5Q217.48 0.5 216.13-1.65L216.13-1.65 210.78-10.3 204.33 0 201.08 0 208.98-12.5 200.98-25 204.33-25Z" opacity="1" transform="matrix(1,0,0,1,0,0)" fill="#ffffff" class="undefined-text-0" data-fill-palette-color="quaternary" id="text-0"></path></svg></g></svg></g></svg></g></svg></g><g transform="matrix(1,0,0,1,46.478840374224106,0)"><svg viewBox="0 0 99.04231925155179 88.2282285972442" height="88.2282285972442" width="99.04231925155179"><g><svg xmlns="http://www.w3.org/2000/svg" xmlns:xlink="http://www.w3.org/1999/xlink" version="1.1" x="0" y="0" viewBox="6.500855445861816 11.199999809265137 86.9991455078125 77.50000762939453" style="enable-background:new 0 0 100 100;" xml:space="preserve" height="88.2282285972442" width="99.04231925155179" class="icon-icon-0" data-fill-palette-color="quaternary" id="icon-0"><g fill="#ffffff" data-fill-palette-color="quaternary"><path d="M56.3 62.3c0-0.7-0.1-1.4-0.3-2-0.9 2.4-3.3 4.1-6 4.1-2.9 0-5.4-1.9-6.2-4.5-0.1 0.4-0.2 0.9-0.2 1.4v6.3c0 3.5 2.9 6.4 6.4 6.4s6.4-2.9 6.4-6.4h-0.1C56.3 67.6 56.3 62.3 56.3 62.3z" fill="#ffffff" data-fill-palette-color="quaternary"></path><path d="M50 60.5c1.4 0 2.5-1.1 2.5-2.5v-1.5C51.7 56.2 50.9 56 50 56s-1.7 0.2-2.5 0.4V58C47.5 59.4 48.6 60.5 50 60.5z" fill="#ffffff" data-fill-palette-color="quaternary"></path><path d="M42.5 44c0-1.4-1.1-2.5-2.5-2.5s-2.5 1.1-2.5 2.5 1.1 2.5 2.5 2.5S42.5 45.4 42.5 44z" fill="#ffffff" data-fill-palette-color="quaternary"></path><path d="M60 41.5c-1.4 0-2.5 1.1-2.5 2.5s1.1 2.5 2.5 2.5 2.5-1.1 2.5-2.5S61.4 41.5 60 41.5z" fill="#ffffff" data-fill-palette-color="quaternary"></path><path d="M77.5 11.2c-8 0-14.6 5.8-15.8 13.5-7.7-1.9-15.7-1.9-23.4 0-0.6-3.6-2.4-6.9-5.1-9.4-3.4-3-7.9-4.5-12.5-4C13.4 12.1 7.4 18 6.6 25.4c-0.5 4.6 0.9 9.1 4 12.5 2.6 2.9 6.2 4.7 10 5.2v18.1c0 15.2 13.2 27.5 29.5 27.5s29.5-12.3 29.5-27.5V43.1c7.8-1 13.9-7.7 13.9-15.8C93.5 18.4 86.3 11.2 77.5 11.2zM33.5 44c0-3.6 2.9-6.5 6.5-6.5s6.5 2.9 6.5 6.5-2.9 6.5-6.5 6.5S33.5 47.6 33.5 44zM60.4 67.6C60.4 73.3 55.7 78 50 78s-10.4-4.7-10.4-10.3v-6.3C39.6 55.9 44 52 50 52c5.7 0 10.4 4.7 10.4 10.3V67.6zM60 50.5c-3.6 0-6.5-2.9-6.5-6.5s2.9-6.5 6.5-6.5 6.5 2.9 6.5 6.5S63.6 50.5 60 50.5z" fill="#ffffff" data-fill-palette-color="quaternary"></path></g></svg></g></svg></g><g></g></svg></g></svg></g></svg></g></svg></g><defs></defs></svg><rect width="320" height="360" fill="none" stroke="none" visibility="hidden"></rect></g></svg></g></svg>